<svg width="509" height="361" viewBox="0 0 509 361" fill="none" xmlns="http://www.w3.org/2000/svg">
<path d="M267.13 0C324.454 0 371.907 42.2618 380.032 97.3277H331.24C323.802 68.8705 297.918 47.8713 267.13 47.8713H200.871V114.13C200.871 147.384 225.369 174.917 257.302 179.665V227.842C198.871 222.859 153 173.852 153 114.13V0H267.13Z" fill="#254137"/>
<rect x="280.758" y="128.713" width="49.4584" height="49.4584" fill="#254137"/>
<rect x="330.219" y="178.172" width="49.7714" height="49.7714" fill="#254137"/>
<path d="M93.1201 295.648C96.598 295.648 99.6488 296.442 102.272 298.028C104.957 299.615 106.879 301.75 108.038 304.435V296.747H117.374V341.593C117.374 345.62 116.458 349.006 114.628 351.752C112.859 354.559 110.296 356.664 106.94 358.067C103.646 359.532 99.7099 360.264 95.1338 360.264C91.2899 360.264 87.9033 359.685 84.9746 358.525C82.0459 357.366 79.6356 355.718 77.7441 353.583C75.8527 351.508 74.5716 349.067 73.9004 346.261L83.9678 345.62C84.6389 347.634 85.7979 349.221 87.4453 350.38C89.1537 351.6 91.7169 352.21 95.1338 352.21C99.1605 352.21 102.241 351.356 104.377 349.647C106.573 347.939 107.672 345.346 107.672 341.868V334.82C106.513 337.322 104.652 339.305 102.089 340.77C99.5264 342.234 96.6589 342.966 93.4863 342.966C89.3983 342.966 85.7675 341.96 82.5947 339.946C79.4219 337.933 76.9511 335.156 75.1816 331.617C73.4122 328.078 72.5274 323.991 72.5273 319.354C72.5273 314.655 73.3814 310.536 75.0898 306.997C76.8593 303.458 79.3004 300.682 82.4121 298.669C85.5849 296.655 89.1542 295.648 93.1201 295.648ZM191.86 295.648C198.45 295.648 203.453 297.418 206.87 300.957C210.348 304.435 212.087 309.347 212.087 315.692V334.638C212.087 335.797 212.271 336.62 212.637 337.108C213.064 337.535 213.734 337.749 214.649 337.749H216.389V345.438C216.084 345.498 215.596 345.559 214.925 345.62C214.254 345.681 213.552 345.712 212.819 345.712C210.745 345.712 208.945 345.376 207.42 344.705C205.956 344.034 204.857 342.935 204.125 341.41C203.68 340.445 203.37 339.288 203.195 337.939C202.622 339.126 201.835 340.223 200.83 341.228C199.244 342.875 197.2 344.187 194.698 345.163C192.258 346.078 189.603 346.535 186.735 346.535C181.671 346.535 177.613 345.376 174.562 343.058C171.573 340.739 170.078 337.475 170.078 333.265C170.078 329.055 171.329 325.79 173.831 323.472C176.394 321.092 180.329 319.384 185.637 318.347L202.386 315.143C202.386 311.36 201.501 308.553 199.731 306.723C197.962 304.831 195.338 303.886 191.86 303.886C188.749 303.886 186.308 304.587 184.539 305.99C182.77 307.333 181.549 309.347 180.878 312.031L170.901 311.391C171.817 306.509 174.075 302.665 177.675 299.858C181.336 297.052 186.064 295.648 191.86 295.648ZM330.962 295.22C337.552 295.22 342.555 296.989 345.972 300.528C349.45 304.006 351.188 308.918 351.188 315.264V334.209C351.189 335.368 351.372 336.192 351.738 336.68C352.165 337.107 352.836 337.32 353.751 337.32H355.49V345.009C355.185 345.07 354.697 345.13 354.026 345.191C353.355 345.252 352.653 345.283 351.921 345.283C349.847 345.283 348.047 344.947 346.521 344.276C345.057 343.605 343.959 342.507 343.227 340.981C342.781 340.016 342.471 338.859 342.297 337.511C341.723 338.697 340.936 339.793 339.932 340.798C338.345 342.445 336.301 343.757 333.8 344.733C331.359 345.649 328.705 346.106 325.837 346.106C320.773 346.106 316.715 344.947 313.664 342.629C310.674 340.31 309.18 337.046 309.18 332.836C309.18 328.626 310.431 325.362 312.933 323.043C315.495 320.663 319.43 318.954 324.738 317.917L341.487 314.714C341.487 310.931 340.602 308.124 338.833 306.294C337.064 304.403 334.44 303.457 330.962 303.457C327.85 303.457 325.41 304.158 323.641 305.562C321.871 306.904 320.651 308.918 319.979 311.603L310.003 310.962C310.918 306.081 313.176 302.236 316.776 299.43C320.437 296.623 325.166 295.22 330.962 295.22ZM398.908 325.147C398.908 329.54 399.671 332.774 401.196 334.849C402.722 336.923 405.041 337.961 408.152 337.961C411.691 337.961 414.437 336.832 416.39 334.574C418.403 332.256 419.41 329.022 419.41 324.873V296.318H429.111V345.008H420.051L419.937 337.093C418.955 339.365 417.591 341.241 415.84 342.72C413.094 344.977 409.556 346.106 405.224 346.106C400.342 346.106 396.438 344.49 393.509 341.256C390.641 337.961 389.207 333.415 389.207 327.619V296.318H398.908V325.147ZM485.809 295.22C490.202 295.22 494.077 296.257 497.433 298.331C500.788 300.345 503.381 303.274 505.212 307.118C507.103 310.962 508.049 315.599 508.049 321.029V323.5H473.087C473.331 328.259 474.582 331.829 476.84 334.209C479.158 336.588 482.27 337.778 486.175 337.778C489.042 337.778 491.422 337.107 493.313 335.765C495.205 334.422 496.517 332.622 497.249 330.364L507.316 331.005C506.035 335.52 503.504 339.182 499.721 341.988C495.999 344.734 491.452 346.106 486.083 346.106C481.324 346.106 477.205 345.07 473.728 342.995C470.311 340.921 467.657 337.961 465.766 334.117C463.935 330.273 463.02 325.788 463.02 320.663C463.02 315.538 463.935 311.084 465.766 307.301C467.657 303.457 470.311 300.497 473.728 298.423C477.144 296.287 481.172 295.22 485.809 295.22ZM155.771 296.75H168.676V304.712H155.771V331.528C155.771 333.786 156.259 335.342 157.235 336.196C158.212 337.05 159.706 337.477 161.72 337.478H168.676V345.44H159.615C154.978 345.44 151.561 344.372 149.364 342.236C147.168 340.101 146.069 336.776 146.069 332.261V304.712H138.656V296.75H146.069V285.31H155.771V296.75ZM20.8672 280.458C31.0567 280.458 38.8973 283.295 44.3887 288.97C49.88 294.583 52.6259 302.607 52.626 313.04C52.626 323.413 49.9108 331.406 44.4805 337.02C39.1111 342.633 31.4225 345.439 21.416 345.439H0V280.458H20.8672ZM229.084 334.183C229.084 335.281 229.359 336.104 229.908 336.653C230.518 337.202 231.372 337.478 232.471 337.478H236.314V345.439H229.999C226.827 345.439 224.264 344.616 222.312 342.969C220.359 341.321 219.383 338.697 219.383 335.098V280.458H229.084V334.183ZM67.3066 345.438H57.6045V296.748H67.3066V345.438ZM135.111 345.438H125.409V296.748H135.111V345.438ZM293.043 333.02V280.027H302.927V345.009H289.931L260.369 293.207V345.009H250.484V280.027H263.023L293.043 333.02ZM371.436 296.317H384.34V304.28H371.436V331.097C371.436 333.354 371.923 334.91 372.899 335.765C373.876 336.619 375.371 337.046 377.384 337.046H384.34V345.008H375.279C370.642 345.008 367.225 343.94 365.028 341.805C362.832 339.669 361.733 336.344 361.733 331.829V304.28H354.32V296.317H361.733V284.878H371.436V296.317ZM447.405 305.555C448.159 302.863 449.26 300.791 450.713 299.338C452.787 297.325 455.563 296.318 459.041 296.318H463.709V305.013H459.041C456.601 305.013 454.557 305.409 452.909 306.202C451.262 306.995 450.011 308.216 449.157 309.863C448.364 311.511 447.967 313.646 447.967 316.27V345.008H438.266V296.318H447.144L447.405 305.555ZM188.108 325.211C185.18 325.76 183.105 326.645 181.885 327.865C180.726 329.025 180.146 330.519 180.146 332.35C180.146 334.424 180.848 336.041 182.251 337.2C183.715 338.298 185.729 338.848 188.291 338.848C191.22 338.848 193.721 338.298 195.796 337.2C197.87 336.041 199.487 334.454 200.646 332.44C201.806 330.427 202.386 328.14 202.386 325.577V322.465L188.108 325.211ZM327.21 324.781C324.281 325.33 322.207 326.215 320.986 327.436C319.827 328.595 319.247 330.09 319.247 331.921C319.247 333.995 319.949 335.612 321.353 336.771C322.817 337.87 324.83 338.419 327.393 338.419C330.321 338.419 332.823 337.87 334.897 336.771C336.972 335.612 338.589 334.025 339.748 332.012C340.907 329.998 341.487 327.71 341.487 325.147V322.036L327.21 324.781ZM9.88477 336.379H20.8672C28.0669 336.379 33.4367 334.457 36.9756 330.613C40.5755 326.708 42.375 320.85 42.375 313.04C42.3749 305.108 40.5754 299.22 36.9756 295.376C33.4367 291.471 28.0669 289.519 20.8672 289.519H9.88477V336.379ZM95.042 303.886C91.076 303.886 87.9944 305.289 85.7979 308.096C83.6624 310.841 82.5947 314.564 82.5947 319.262C82.5947 324.021 83.6932 327.804 85.8896 330.61C88.1472 333.356 91.198 334.729 95.042 334.729C98.8249 334.729 101.845 333.356 104.103 330.61C106.421 327.865 107.611 324.082 107.672 319.262C107.733 316.089 107.245 313.374 106.208 311.116C105.171 308.798 103.676 307.028 101.724 305.808C99.8322 304.526 97.6046 303.886 95.042 303.886ZM485.809 303.457C482.331 303.457 479.464 304.555 477.206 306.752C475.009 308.887 473.636 312.03 473.087 316.179H497.798C497.493 311.847 496.242 308.643 494.046 306.568C491.91 304.494 489.164 303.457 485.809 303.457ZM67.4893 289.701H57.4219V280H67.4893V289.701ZM135.294 289.701H125.227V280H135.294V289.701Z" fill="#254137"/>
</svg>
