<svg width="710" height="103" viewBox="0 0 710 103" fill="none" xmlns="http://www.w3.org/2000/svg">
<path d="M236.874 28.6562C240.835 28.6562 244.309 29.5596 247.297 31.3662C250.354 33.1728 252.543 35.6048 253.863 38.6621V29.9072H264.495V80.9785C264.495 85.5645 263.453 89.421 261.368 92.5479C259.353 95.7442 256.434 98.1411 252.612 99.7393C248.86 101.407 244.378 102.241 239.167 102.241C234.79 102.241 230.933 101.581 227.598 100.261C224.263 98.9406 221.518 97.0645 219.364 94.6328C217.21 92.2703 215.751 89.4903 214.986 86.2939L226.451 85.5645C227.215 87.8574 228.536 89.6642 230.412 90.9844C232.358 92.374 235.276 93.0693 239.167 93.0693C243.753 93.0693 247.262 92.096 249.694 90.1504C252.196 88.2048 253.446 85.2517 253.446 81.291V73.2656C252.126 76.1144 250.007 78.3724 247.089 80.04C244.17 81.7077 240.904 82.542 237.291 82.542C232.636 82.5419 228.501 81.3955 224.888 79.1025C221.275 76.8095 218.46 73.6472 216.445 69.6172C214.43 65.5872 213.423 60.9319 213.423 55.6514C213.423 50.301 214.396 45.6102 216.342 41.5801C218.357 37.5501 221.136 34.3887 224.68 32.0957C228.293 29.8027 232.358 28.6563 236.874 28.6562ZM349.32 28.6562C356.824 28.6563 362.522 30.6712 366.413 34.7012C370.374 38.6618 372.354 44.256 372.354 51.4824V73.0576C372.355 74.3774 372.563 75.3152 372.979 75.8711C373.466 76.3575 374.23 76.6005 375.272 76.6006H377.253V85.3564C376.905 85.4259 376.349 85.495 375.585 85.5645C374.821 85.6339 374.022 85.6689 373.188 85.6689C370.826 85.6689 368.776 85.2867 367.039 84.5225C365.371 83.7582 364.12 82.5075 363.286 80.7705C362.779 79.6713 362.427 78.3529 362.229 76.8164C361.575 78.1679 360.679 79.417 359.534 80.5615C357.728 82.4376 355.4 83.9312 352.551 85.043C349.771 86.0852 346.749 86.6064 343.483 86.6064C337.716 86.6064 333.095 85.2868 329.621 82.6465C326.216 80.0061 324.514 76.2884 324.514 71.4941C324.514 66.6998 325.938 62.9822 328.787 60.3418C331.705 57.6319 336.187 55.6861 342.232 54.5049L361.307 50.8564C361.307 46.5485 360.298 43.3521 358.283 41.2676C356.268 39.1137 353.281 38.0362 349.32 38.0361C345.777 38.0361 342.997 38.8354 340.981 40.4336C338.966 41.9622 337.577 44.2553 336.812 47.3125L325.452 46.583C326.494 41.0243 329.065 36.6465 333.165 33.4502C337.334 30.2541 342.719 28.6562 349.32 28.6562ZM507.729 28.1709C515.233 28.171 520.93 30.1867 524.821 34.2168C528.782 38.1774 530.763 43.7707 530.763 50.9971V72.5723C530.763 73.8925 530.971 74.8308 531.388 75.3867C531.874 75.8731 532.639 76.1162 533.681 76.1162H535.661V84.8711C535.314 84.9406 534.757 85.0106 533.993 85.0801C533.229 85.1495 532.43 85.1836 531.597 85.1836C529.234 85.1836 527.184 84.8014 525.447 84.0371C523.78 83.2728 522.528 82.0223 521.694 80.2852C521.187 79.1861 520.835 77.8682 520.637 76.332C519.984 77.6833 519.087 78.9327 517.942 80.0771C516.136 81.9531 513.808 83.4469 510.959 84.5586C508.18 85.6008 505.157 86.122 501.892 86.1221C496.124 86.1221 491.504 84.8015 488.029 82.1611C484.625 79.5207 482.922 75.8033 482.922 71.0088C482.922 66.2144 484.346 62.4969 487.195 59.8564C490.114 57.1466 494.595 55.2008 500.641 54.0195L519.714 50.3721C519.714 46.064 518.706 42.8678 516.691 40.7832C514.676 38.6292 511.689 37.5518 507.729 37.5518C504.185 37.5518 501.405 38.3511 499.39 39.9492C497.375 41.4779 495.985 43.7709 495.221 46.8281L483.86 46.0986C484.903 40.5398 487.474 36.1621 491.573 32.9658C495.742 29.7696 501.128 28.1709 507.729 28.1709ZM684.069 28.1709C689.072 28.171 693.484 29.3525 697.306 31.7148C701.127 34.0078 704.08 37.3432 706.165 41.7207C708.319 46.0983 709.396 51.3793 709.396 57.5635V60.3779H669.581C669.859 65.7976 671.284 69.8624 673.854 72.5723C676.495 75.2822 680.039 76.6377 684.486 76.6377C687.752 76.6376 690.461 75.8723 692.615 74.3438C694.769 72.8151 696.264 70.7653 697.098 68.1943L708.562 68.9248C707.103 74.0665 704.219 78.2354 699.911 81.4316C695.673 84.5583 690.496 86.122 684.382 86.1221C678.962 86.1221 674.271 84.9406 670.311 82.5781C666.419 80.2156 663.397 76.8453 661.243 72.4678C659.159 68.0902 658.116 62.9832 658.116 57.1465C658.116 51.3099 659.159 46.2377 661.243 41.9297C663.397 37.5522 666.42 34.1818 670.311 31.8193C674.202 29.3873 678.788 28.1709 684.069 28.1709ZM585.111 62.2529C585.111 67.2559 585.981 70.9393 587.718 73.3018C589.455 75.6639 592.095 76.8447 595.639 76.8447C599.669 76.8447 602.796 75.5592 605.02 72.9883C607.312 70.3479 608.459 66.6652 608.459 61.9404V29.4209H619.507V84.8711H609.188L609.058 75.8613C607.94 78.4471 606.386 80.5819 604.394 82.2646C601.267 84.8355 597.237 86.121 592.304 86.1211C586.745 86.1211 582.297 84.2803 578.962 80.5977C575.696 76.8455 574.063 71.6685 574.063 65.0674V29.4209H585.111V62.2529ZM154.589 11.3564C166.193 11.3565 175.121 14.5869 181.375 21.0488C187.629 27.4414 190.756 36.579 190.756 48.4609C190.756 60.2733 187.664 69.3759 181.479 75.7686C175.365 82.1612 166.609 85.3574 155.214 85.3574H130.824V11.3564H154.589ZM308.218 29.9082H322.914V38.9766H308.218V69.5156C308.218 72.0863 308.774 73.8583 309.886 74.8311C310.997 75.8036 312.7 76.29 314.992 76.29H322.914V85.3574H312.596C307.315 85.3574 303.423 84.1419 300.922 81.71C298.42 79.278 297.17 75.4905 297.17 70.3486V38.9766H288.728V29.9082H297.17V16.8799H308.218V29.9082ZM391.705 72.5381C391.705 73.7884 392.018 74.7262 392.643 75.3516C393.337 75.9769 394.311 76.29 395.562 76.29H399.938V85.3574H392.747C389.134 85.3574 386.216 84.4199 383.992 82.5439C381.769 80.6678 380.657 77.6797 380.657 73.5801V11.3564H391.705V72.5381ZM207.476 85.3564H196.428V29.9072H207.476V85.3564ZM284.694 85.3564H273.646V29.9072H284.694V85.3564ZM640.329 39.9395C641.188 36.8752 642.442 34.5155 644.096 32.8613C646.458 30.5683 649.62 29.4209 653.581 29.4209H658.896V39.3232H653.581C650.802 39.3232 648.474 39.7745 646.598 40.6777C644.722 41.581 643.297 42.9708 642.324 44.8467C641.421 46.7228 640.969 49.1557 640.969 52.1436V84.8711H629.921V29.4209H640.031L640.329 39.9395ZM464.543 71.2158V10.8682H475.8V84.8701H460.999L427.334 25.877V84.8701H416.077V10.8682H430.356L464.543 71.2158ZM553.815 29.4209H568.512V38.4893H553.815V69.0273C553.815 71.5983 554.372 73.371 555.483 74.3438C556.595 75.3164 558.298 75.8027 560.591 75.8027H568.512V84.8701H558.193C552.912 84.8701 549.021 83.6546 546.52 81.2227C544.018 78.7907 542.768 75.0032 542.768 69.8613V38.4893H534.325V29.4209H542.768V16.3926H553.815V29.4209ZM345.047 62.3213C341.712 62.9467 339.349 63.955 337.959 65.3447C336.639 66.6648 335.979 68.3669 335.979 70.4512C335.979 72.8137 336.778 74.6554 338.376 75.9756C340.044 77.2263 342.337 77.8515 345.255 77.8516C348.59 77.8516 351.439 77.2263 353.802 75.9756C356.164 74.6554 358.006 72.8487 359.326 70.5557C360.646 68.2627 361.307 65.6566 361.307 62.7383V59.1953L345.047 62.3213ZM503.455 61.8369C500.12 62.4623 497.757 63.4697 496.367 64.8594C495.047 66.1796 494.387 67.8822 494.387 69.9668C494.387 72.3291 495.186 74.1701 496.784 75.4902C498.452 76.7409 500.745 77.3672 503.663 77.3672C506.998 77.3672 509.847 76.741 512.21 75.4902C514.572 74.1701 516.414 72.3642 517.734 70.0713C519.055 67.7783 519.714 65.1722 519.714 62.2539V58.71L503.455 61.8369ZM142.081 75.0391H154.589C162.788 75.039 168.903 72.8502 172.933 68.4727C177.032 64.0256 179.082 57.355 179.082 48.4609C179.082 39.4279 177.032 32.7223 172.933 28.3447C168.903 23.8979 162.788 21.6748 154.589 21.6748H142.081V75.0391ZM239.063 38.0361C234.547 38.0361 231.038 39.6347 228.536 42.8311C226.104 45.9579 224.888 50.1965 224.888 55.5469C224.888 60.9666 226.139 65.2744 228.641 68.4707C231.212 71.5975 234.686 73.1611 239.063 73.1611C243.371 73.1611 246.811 71.5975 249.382 68.4707C252.022 65.3439 253.377 61.036 253.446 55.5469C253.516 51.9337 252.961 48.8415 251.779 46.2705C250.598 43.6301 248.895 41.6153 246.672 40.2256C244.518 38.7664 241.982 38.0362 239.063 38.0361ZM684.069 37.5518C680.109 37.5518 676.842 38.8023 674.271 41.3037C671.77 43.7356 670.206 47.3142 669.581 52.0391H697.723C697.375 47.1058 695.951 43.4581 693.449 41.0957C691.017 38.7333 687.891 37.5518 684.069 37.5518ZM207.684 21.8818H196.219V10.834H207.684V21.8818ZM284.903 21.8818H273.438V10.834H284.903V21.8818Z" fill="#7DF799"/>
<path d="M46.7356 0C70.2094 0 89.6411 17.3059 92.9682 39.8551H72.988C69.9423 28.2021 59.3432 19.603 46.7356 19.603H19.603V46.7356C19.603 60.3531 29.6347 71.6274 42.7112 73.5717V93.3001C18.7839 91.2594 0 71.1912 0 46.7356V0H46.7356Z" fill="#7DF799"/>
<rect x="52.3164" y="52.707" width="20.2529" height="20.2529" fill="#7DF799"/>
<rect x="72.5703" y="72.9604" width="20.3811" height="20.3811" fill="white"/>
</svg>
